<svg xmlns="http://www.w3.org/2000/svg" viewBox="0 0 64 64" width="64" height="64">
  <!-- Heart shape -->
  <path d="M32 56 C32 56 8 40 8 22 C8 14 14 8 22 8 C27 8 30 11 32 14 C34 11 37 8 42 8 C50 8 56 14 56 22 C56 40 32 56 32 56Z" fill="#0f766e" />
  <!-- Lifeline/pulse -->
  <polyline points="10,32 22,32 26,20 30,44 34,28 38,36 42,32 54,32" fill="none" stroke="white" stroke-width="3" stroke-linecap="round" stroke-linejoin="round"/>
  <!-- Plus sign -->
  <rect x="46" y="4" width="14" height="14" rx="3" fill="#f59e0b"/>
  <line x1="53" y1="7" x2="53" y2="15" stroke="white" stroke-width="2.5" stroke-linecap="round"/>
  <line x1="49" y1="11" x2="57" y2="11" stroke="white" stroke-width="2.5" stroke-linecap="round"/>
</svg>
